<?xml version="1.0" encoding="UTF-8"?>
<svg width="48px" height="48px" viewBox="0 0 48 48" version="1.1" xmlns="http://www.w3.org/2000/svg" xmlns:xlink="http://www.w3.org/1999/xlink">
    <!-- Generator: Sketch 50.2 (55047) - http://www.bohemiancoding.com/sketch -->
    <title>packr-icon</title>
    <desc>Created with Sketch.</desc>
    <defs></defs>
    <g id="packr-icon" stroke="none" stroke-width="1" fill="none" fill-rule="evenodd">
        <rect id="Rectangle" fill="#51586A" x="0" y="0" width="48" height="48" rx="10"></rect>
        <path d="M11.2895456,16.8400438 L11.2745138,16.8499862 L7.86002227,11.6876399 L22.9214579,6 L24.3385617,8.54424968 L25.7996712,8.00436971 L31.3991966,10.3169737 L32.8625564,9.54593299 L42.5983255,14.7643663 L38.2895456,19.381224 L38.2895456,20.40266 L41.4960882,25.7468977 L39.2895456,26.850169 L39.2895456,33.8681598 L22.7458743,41.106016 L11.2895456,33.8156249 L11.2895456,26.2101295 L6,21.5083112 L10.7895456,17.916152 L11.2895456,18.291152 L11.2895456,16.8400438 Z M11.2895456,15.0600293 L11.2895456,14.4931271 L17.8433983,11.9851861 L19.2895456,12.8890282 L19.2895456,10.4098611 L23.3892767,8.89501049 L22.4676333,7.24030399 L9.38506889,12.1806641 L11.2895456,15.0600293 Z M38.2895456,17.91558 L40.9807657,15.0319377 L32.8585348,10.678371 L32.2895456,10.97817 L32.2895456,14.199016 L32.7887578,13.9841408 L38.2895456,16.3329772 L38.2895456,17.91558 Z M20.2895456,13.5140282 L25.8324415,16.9783381 L31.4946728,14.541152 L31.2895456,14.541152 L31.2895456,11.3536162 L25.7794199,9.07793429 L20.2895456,11.1064429 L20.2895456,13.5140282 Z M37.2895456,17.3305425 L31.2895456,20.2036854 L31.2895456,23.0227205 L37.2895456,20.2227205 L37.2895456,17.3305425 Z M36.4378394,16.6296482 L32.7903334,15.0721632 L27.2061198,17.4757682 L30.7715655,19.3429839 L36.4378394,16.6296482 Z M26.2895456,18.1245914 L26.2895456,21.2440129 L30.2895456,23.4208836 L30.2895456,20.2193822 L26.2895456,18.1245914 Z M12.2895456,16.8380765 L12.2895456,19.041152 L17.2895456,22.791152 L17.2895456,20.187775 L12.2895456,16.8380765 Z M12.2895456,15.6344074 L17.8229263,19.3414389 L23.9189045,16.9616251 L17.7356929,13.0971179 L12.2895456,15.1811769 L12.2895456,15.6344074 Z M24.9761342,17.6223937 L18.2895456,20.2327763 L18.2895456,23.541152 L18.8582866,23.9677078 L25.2895456,21.2114539 L25.2895456,17.8182758 L24.9761342,17.6223937 Z M29.231074,23.9833406 L25.7635747,22.0962662 L19.7814106,24.6600508 L22.2895456,26.541152 L23.2895456,26.541152 L23.2895456,26.7560538 L29.231074,23.9833406 Z M12.2895456,27.0990184 L12.2895456,33.2666791 L22.2895456,39.6303154 L22.2895456,27.791152 L21.5367592,27.2265622 L15.710374,30.1397548 L12.2895456,27.0990184 Z M38.2895456,27.350169 L26.5990187,33.1954325 L23.3738922,27.8202217 L23.2895456,27.8595835 L23.2895456,39.7766442 L38.2895456,33.2141442 L38.2895456,27.350169 Z M10.7895456,19.166152 L7.57909116,21.5739928 L15.8687171,28.9425492 L20.642332,26.5557418 L10.7895456,19.166152 Z M26.9800725,31.8868715 L40.083003,25.3354063 L37.5926422,21.1848051 L24.2849785,27.3950482 L26.9800725,31.8868715 Z" id="Shape" fill="#FFFFFF" fill-rule="nonzero"></path>
    </g>
</svg>